<svg xmlns="http://www.w3.org/2000/svg" version="1.1" xmlns:xlink="http://www.w3.org/1999/xlink" xmlns:svgjs="http://svgjs.dev/svgjs" width="1000" height="1000" viewBox="0 0 1000 1000"><rect width="1000" height="1000" fill="#1976d2"></rect><g transform="matrix(0.7,0,0,0.7,149.57575757575756,371.8101600966386)"><svg viewBox="0 0 396 145" data-background-color="#1976d2" preserveAspectRatio="xMidYMid meet" height="366" width="1000" xmlns="http://www.w3.org/2000/svg" xmlns:xlink="http://www.w3.org/1999/xlink"><defs></defs><g id="tight-bounds" transform="matrix(1,0,0,1,0.2400000000000091,0.05084615920144131)"><svg viewBox="0 0 395.52 144.89830768159712" height="144.89830768159712" width="395.52"><g><svg viewBox="0 0 395.52 144.89830768159712" height="144.89830768159712" width="395.52"><g><svg viewBox="0 0 667.2092521580123 244.43135999999998" height="144.89830768159712" width="395.52"><g transform="matrix(1,0,0,1,271.6892521580124,64.4844998757764)"><svg viewBox="0 0 395.52 115.4623602484472" height="115.4623602484472" width="395.52"><g><svg viewBox="0 0 395.52 115.4623602484472" height="115.4623602484472" width="395.52"><g><svg viewBox="0 0 395.52 115.4623602484472" height="115.4623602484472" width="395.52"><g transform="matrix(1,0,0,1,0,0)"><svg width="395.52" viewBox="2.35 -36 160.99 47" height="115.4623602484472" data-palette-color="#ffffff"><path d="M19.05 0.6L19.05 0.6Q13.9 0.6 10.18-1.68 6.45-3.95 4.4-8.03 2.35-12.1 2.35-17.5L2.35-17.5Q2.35-22.85 4.4-26.93 6.45-31 10.18-33.3 13.9-35.6 19.05-35.6L19.05-35.6Q25.05-35.6 28.83-32.73 32.6-29.85 33.65-24.7L33.65-24.7 29-24.7Q28.2-27.95 25.73-29.93 23.25-31.9 19.05-31.9L19.05-31.9Q15.3-31.9 12.5-30.18 9.7-28.45 8.18-25.23 6.65-22 6.65-17.5L6.65-17.5Q6.65-13 8.18-9.78 9.7-6.55 12.5-4.83 15.3-3.1 19.05-3.1L19.05-3.1Q23.25-3.1 25.73-5.03 28.2-6.95 29-10.15L29-10.15 33.65-10.15Q32.6-5.1 28.83-2.25 25.05 0.6 19.05 0.6ZM50.75 0.6L50.75 0.6Q47.25 0.6 44.45-1 41.65-2.6 40.02-5.53 38.4-8.45 38.4-12.4L38.4-12.4Q38.4-16.35 40.05-19.28 41.7-22.2 44.52-23.8 47.35-25.4 50.85-25.4L50.85-25.4Q54.35-25.4 57.15-23.8 59.95-22.2 61.57-19.28 63.2-16.35 63.2-12.4L63.2-12.4Q63.2-8.45 61.55-5.53 59.9-2.6 57.07-1 54.25 0.6 50.75 0.6ZM50.75-3L50.75-3Q52.9-3 54.75-4.05 56.6-5.1 57.75-7.2 58.9-9.3 58.9-12.4L58.9-12.4Q58.9-15.5 57.77-17.6 56.65-19.7 54.8-20.75 52.95-21.8 50.85-21.8L50.85-21.8Q48.7-21.8 46.85-20.75 45-19.7 43.85-17.6 42.7-15.5 42.7-12.4L42.7-12.4Q42.7-9.3 43.85-7.2 45-5.1 46.82-4.05 48.65-3 50.75-3ZM80.3 0.6L80.3 0.6Q76.59 0.6 73.82-1.1 71.05-2.8 69.52-5.75 68-8.7 68-12.45L68-12.45Q68-16.2 69.55-19.13 71.09-22.05 73.84-23.73 76.59-25.4 80.34-25.4L80.34-25.4Q83.39-25.4 85.75-24.15 88.09-22.9 89.39-20.65L89.39-20.65 89.39-36 93.59-36 93.59 0 89.8 0 89.39-4.1Q88.19-2.3 85.94-0.85 83.69 0.6 80.3 0.6ZM80.75-3.05L80.75-3.05Q83.25-3.05 85.17-4.23 87.09-5.4 88.17-7.5 89.25-9.6 89.25-12.4L89.25-12.4Q89.25-15.2 88.17-17.3 87.09-19.4 85.17-20.58 83.25-21.75 80.75-21.75L80.75-21.75Q78.3-21.75 76.37-20.58 74.44-19.4 73.37-17.3 72.3-15.2 72.3-12.4L72.3-12.4Q72.3-9.6 73.37-7.5 74.44-5.4 76.37-4.23 78.3-3.05 80.75-3.05ZM111.59 0.6L111.59 0.6Q108.04 0.6 105.29-1.03 102.54-2.65 100.97-5.55 99.39-8.45 99.39-12.4L99.39-12.4Q99.39-16.3 100.94-19.23 102.49-22.15 105.27-23.78 108.04-25.4 111.69-25.4L111.69-25.4Q115.29-25.4 117.92-23.78 120.54-22.15 121.94-19.5 123.34-16.85 123.34-13.8L123.34-13.8Q123.34-13.25 123.32-12.7 123.29-12.15 123.29-11.45L123.29-11.45 103.54-11.45Q103.69-8.6 104.87-6.73 106.04-4.85 107.82-3.9 109.59-2.95 111.59-2.95L111.59-2.95Q114.19-2.95 115.94-4.15 117.69-5.35 118.49-7.4L118.49-7.4 122.64-7.4Q121.64-3.95 118.82-1.68 115.99 0.6 111.59 0.6ZM111.59-21.85L111.59-21.85Q108.59-21.85 106.27-20.03 103.94-18.2 103.59-14.7L103.59-14.7 119.19-14.7Q119.04-18.05 116.89-19.95 114.74-21.85 111.59-21.85ZM133.09 0L128.89 0 128.89-36 133.09-36 133.09 0ZM147.09 11L142.69 11 148.84-2.4 147.39-2.4 137.54-24.8 142.09-24.8 150.29-5.5 158.99-24.8 163.34-24.8 147.09 11Z" opacity="1" transform="matrix(1,0,0,1,0,0)" fill="#ffffff" class="undefined-text-0" data-fill-palette-color="primary" id="text-0"></path></svg></g></svg></g></svg></g></svg></g><g><svg viewBox="0 0 244.43135999999998 244.43135999999998" height="244.43135999999998" width="244.43135999999998"><g><svg xmlns="http://www.w3.org/2000/svg" xmlns:xlink="http://www.w3.org/1999/xlink" version="1.1" x="0" y="0" viewBox="0.5000000000000002 0.5 71 71" enable-background="new 0 0 72 72" xml:space="preserve" height="244.43135999999998" width="244.43135999999998" class="icon-icon-0" data-fill-palette-color="accent" id="icon-0"><g fill="#ffffff" data-fill-palette-color="accent"><g fill="#ffffff" data-fill-palette-color="accent"><path d="M69.8 0.5H2.2c-0.9 0-1.7 0.8-1.7 1.7v67.6c0 0.9 0.8 1.7 1.7 1.7h67.6c0.9 0 1.7-0.8 1.7-1.7V2.2C71.5 1.3 70.7 0.5 69.8 0.5zM25 4.5c1.2 0 2.1 0.9 2.1 2.1 0 1.2-0.9 2.1-2.1 2.1-1.2 0-2.1-0.9-2.1-2.1C22.9 5.4 23.8 4.5 25 4.5zM16.1 4.5c1.2 0 2.1 0.9 2.1 2.1 0 1.2-0.9 2.1-2.1 2.1S14 7.8 14 6.6C14 5.4 15 4.5 16.1 4.5zM7.3 4.5c1.2 0 2.1 0.9 2.1 2.1 0 1.2-0.9 2.1-2.1 2.1S5.2 7.8 5.2 6.6C5.2 5.4 6.1 4.5 7.3 4.5zM66.5 64.8c0 0.9-0.8 1.7-1.7 1.7H7.2c-0.9 0-1.7-0.8-1.7-1.7V16.5c0-0.9 0.8-1.7 1.7-1.7h57.6c0.9 0 1.7 0.8 1.7 1.7V64.8z" fill="#ffffff" data-fill-palette-color="accent"></path></g><g fill="#ffffff" data-fill-palette-color="accent"><g fill="#ffffff" data-fill-palette-color="accent"><g fill="#ffffff" data-fill-palette-color="accent"><path d="M50.2 51.4c-0.7 0-1.4-0.3-1.9-0.9-0.9-1-0.7-2.6 0.2-3.5l5.9-5.9c0.5-0.5 0.5-1.4 0-1.9l-5.9-5.9c-0.9-0.9-1.1-2.4-0.3-3.4 1-1.2 2.7-1.2 3.7-0.2l8.8 8.8c0.5 0.5 0.7 1.1 0.7 1.8 0 0.7-0.3 1.3-0.7 1.8L52 50.7C51.5 51.1 50.8 51.4 50.2 51.4z" fill="#ffffff" data-fill-palette-color="accent"></path></g><g fill="#ffffff" data-fill-palette-color="accent"><path d="M21.8 51.4c-0.6 0-1.3-0.2-1.8-0.7l-8.8-8.8c-0.5-0.5-0.7-1.1-0.7-1.8 0-0.7 0.3-1.3 0.7-1.8l8.7-8.7c0.9-0.9 2.4-1.1 3.4-0.3 1.2 1 1.2 2.7 0.2 3.7l-6 6c-0.5 0.5-0.5 1.4 0 1.9l5.9 5.9c0.9 0.9 1.1 2.5 0.2 3.5C23.2 51.1 22.5 51.4 21.8 51.4z" fill="#ffffff" data-fill-palette-color="accent"></path></g></g><g fill="#ffffff" data-fill-palette-color="accent"><path d="M30.7 57.4c-0.3 0-0.6 0-0.8-0.1-1.3-0.5-2-1.9-1.5-3.2l10.5-29.5c0.5-1.3 1.9-2 3.2-1.5 1.3 0.5 2 1.9 1.5 3.2L33.1 55.7C32.7 56.7 31.8 57.4 30.7 57.4z" fill="#ffffff" data-fill-palette-color="accent"></path></g></g></g></svg><g></g></g></svg></g></svg></g></svg></g></svg><rect width="395.52" height="144.89830768159712" fill="none" stroke="none" visibility="hidden"></rect></g></svg></g></svg>